<?xml version="1.0" encoding="UTF-8" standalone="no"?>
<!DOCTYPE svg PUBLIC "-//W3C//DTD SVG 1.1//EN"
 "http://www.w3.org/Graphics/SVG/1.1/DTD/svg11.dtd">
<!-- Generated by graphviz version 2.43.0 (0)
 -->
<!-- Title: CAA Pages: 1 -->
<svg width="474pt" height="260pt"
 viewBox="0.00 0.00 474.00 260.00" xmlns="http://www.w3.org/2000/svg" xmlns:xlink="http://www.w3.org/1999/xlink">
<g id="graph0" class="graph" transform="scale(1 1) rotate(0) translate(4 256)">
<title>CAA</title>
<polygon fill="white" stroke="transparent" points="-4,4 -4,-256 470,-256 470,4 -4,4"/>
<!-- Orchestrator -->
<g id="node1" class="node">
<title>Orchestrator</title>
<path fill="none" stroke="black" d="M280,-252C280,-252 170,-252 170,-252 164,-252 158,-246 158,-240 158,-240 158,-228 158,-228 158,-222 164,-216 170,-216 170,-216 280,-216 280,-216 286,-216 292,-222 292,-228 292,-228 292,-240 292,-240 292,-246 286,-252 280,-252"/>
<text text-anchor="middle" x="225" y="-237.4" font-family="Times,serif" font-size="12.00">Orchestration LLM</text>
<text text-anchor="middle" x="225" y="-224.4" font-family="Times,serif" font-size="12.00">(General Reasoner)</text>
</g>
<!-- A -->
<g id="node2" class="node">
<title>A</title>
<path fill="none" stroke="black" d="M106,-180C106,-180 12,-180 12,-180 6,-180 0,-174 0,-168 0,-168 0,-156 0,-156 0,-150 6,-144 12,-144 12,-144 106,-144 106,-144 112,-144 118,-150 118,-156 118,-156 118,-168 118,-168 118,-174 112,-180 106,-180"/>
<text text-anchor="middle" x="59" y="-165.4" font-family="Times,serif" font-size="12.00">Domain Model A</text>
<text text-anchor="middle" x="59" y="-152.4" font-family="Times,serif" font-size="12.00">(Tools + Rules)</text>
</g>
<!-- Orchestrator&#45;&gt;A -->
<g id="edge1" class="edge">
<title>Orchestrator&#45;&gt;A</title>
<path fill="none" stroke="black" d="M184.39,-215.88C161.6,-206.26 132.97,-194.19 108.83,-184.01"/>
<polygon fill="black" stroke="black" points="110.05,-180.73 99.48,-180.07 107.33,-187.18 110.05,-180.73"/>
</g>
<!-- B -->
<g id="node3" class="node">
<title>B</title>
<path fill="none" stroke="black" d="M301.5,-180C301.5,-180 148.5,-180 148.5,-180 142.5,-180 136.5,-174 136.5,-168 136.5,-168 136.5,-156 136.5,-156 136.5,-150 142.5,-144 148.5,-144 148.5,-144 301.5,-144 301.5,-144 307.5,-144 313.5,-150 313.5,-156 313.5,-156 313.5,-168 313.5,-168 313.5,-174 307.5,-180 301.5,-180"/>
<text text-anchor="middle" x="225" y="-165.4" font-family="Times,serif" font-size="12.00">Domain Model B</text>
<text text-anchor="middle" x="225" y="-152.4" font-family="Times,serif" font-size="12.00">(Investments, etc. + Rules)</text>
</g>
<!-- Orchestrator&#45;&gt;B -->
<g id="edge2" class="edge">
<title>Orchestrator&#45;&gt;B</title>
<path fill="none" stroke="black" d="M225,-215.7C225,-207.98 225,-198.71 225,-190.11"/>
<polygon fill="black" stroke="black" points="228.5,-190.1 225,-180.1 221.5,-190.1 228.5,-190.1"/>
</g>
<!-- C -->
<g id="node4" class="node">
<title>C</title>
<path fill="none" stroke="black" d="M454,-180C454,-180 344,-180 344,-180 338,-180 332,-174 332,-168 332,-168 332,-156 332,-156 332,-150 338,-144 344,-144 344,-144 454,-144 454,-144 460,-144 466,-150 466,-156 466,-156 466,-168 466,-168 466,-174 460,-180 454,-180"/>
<text text-anchor="middle" x="399" y="-165.4" font-family="Times,serif" font-size="12.00">Domain Model C</text>
<text text-anchor="middle" x="399" y="-152.4" font-family="Times,serif" font-size="12.00">(Cognition + Rules)</text>
</g>
<!-- Orchestrator&#45;&gt;C -->
<g id="edge3" class="edge">
<title>Orchestrator&#45;&gt;C</title>
<path fill="none" stroke="black" d="M267.57,-215.88C291.56,-206.22 321.73,-194.09 347.1,-183.88"/>
<polygon fill="black" stroke="black" points="348.6,-187.05 356.57,-180.07 345.99,-180.55 348.6,-187.05"/>
</g>
<!-- MCP -->
<g id="node5" class="node">
<title>MCP</title>
<path fill="none" stroke="black" d="M307,-108C307,-108 143,-108 143,-108 137,-108 131,-102 131,-96 131,-96 131,-84 131,-84 131,-78 137,-72 143,-72 143,-72 307,-72 307,-72 313,-72 319,-78 319,-84 319,-84 319,-96 319,-96 319,-102 313,-108 307,-108"/>
<text text-anchor="middle" x="225" y="-86.9" font-family="Times,serif" font-size="12.00">MCP Context &amp; Trace Layer</text>
</g>
<!-- A&#45;&gt;MCP -->
<g id="edge4" class="edge">
<title>A&#45;&gt;MCP</title>
<path fill="none" stroke="black" d="M99.61,-143.88C122.4,-134.26 151.03,-122.19 175.17,-112.01"/>
<polygon fill="black" stroke="black" points="176.67,-115.18 184.52,-108.07 173.95,-108.73 176.67,-115.18"/>
</g>
<!-- B&#45;&gt;MCP -->
<g id="edge5" class="edge">
<title>B&#45;&gt;MCP</title>
<path fill="none" stroke="black" d="M225,-143.7C225,-135.98 225,-126.71 225,-118.11"/>
<polygon fill="black" stroke="black" points="228.5,-118.1 225,-108.1 221.5,-118.1 228.5,-118.1"/>
</g>
<!-- C&#45;&gt;MCP -->
<g id="edge6" class="edge">
<title>C&#45;&gt;MCP</title>
<path fill="none" stroke="black" d="M356.43,-143.88C332.44,-134.22 302.27,-122.09 276.9,-111.88"/>
<polygon fill="black" stroke="black" points="278.01,-108.55 267.43,-108.07 275.4,-115.05 278.01,-108.55"/>
</g>
<!-- Clients -->
<g id="node6" class="node">
<title>Clients</title>
<path fill="none" stroke="black" d="M380,-36C380,-36 70,-36 70,-36 64,-36 58,-30 58,-24 58,-24 58,-12 58,-12 58,-6 64,0 70,0 70,0 380,0 380,0 386,0 392,-6 392,-12 392,-12 392,-24 392,-24 392,-30 386,-36 380,-36"/>
<text text-anchor="middle" x="225" y="-21.4" font-family="Times,serif" font-size="12.00">Clients / Viewers</text>
<text text-anchor="middle" x="225" y="-8.4" font-family="Times,serif" font-size="12.00">Mapper • Legal DocBot • OSINT • Guidance • Audit</text>
</g>
<!-- MCP&#45;&gt;Clients -->
<g id="edge7" class="edge">
<title>MCP&#45;&gt;Clients</title>
<path fill="none" stroke="black" d="M225,-71.7C225,-63.98 225,-54.71 225,-46.11"/>
<polygon fill="black" stroke="black" points="228.5,-46.1 225,-36.1 221.5,-46.1 228.5,-46.1"/>
</g>
</g>
</svg>
